# xmcd
#
# Track frame offsets:
#	150
#	20325
#	38250
#	60725
#	79665
#	99092
#	115865
#	140917
#	155967
#	174342
#	197507
#	216662
#	235225
#	257527
#	276010
#
# Disc length: 3951 seconds
#
# Revision: 0
# Processed by: cddbd v1.5.2PL0 Copyright (c) Steve Scherf et al.
# Submitted via: EasyCDDAExtractor 15.2.5.1
#
DISCID=c90f6d0f
DTITLE=코리아나(Koreana) - 그날은 (EXPO'93) (1993) by oreum.com
DYEAR=1993
DGENRE=Pop
TTITLE0=그날은
TTITLE1=Eenie Meenie
TTITLE2=Sail Into The Sunset
TTITLE3=그대 떠나는 날에
TTITLE4=편한 사람
TTITLE5=마음으로 말해요
TTITLE6=그대는 나
TTITLE7=파도를 오타
TTITLE8=오! 사랑
TTITLE9=이제는 우리가
TTITLE10=손에 손잡고
TTITLE11=사랑 사랑
TTITLE12=황금빛 눈물
TTITLE13=그날은 [Orchestra Version]
TTITLE14=그날은 [MR]
EXTD=
EXTT0=
EXTT1=
EXTT2=
EXTT3=
EXTT4=
EXTT5=
EXTT6=
EXTT7=
EXTT8=
EXTT9=
EXTT10=
EXTT11=
EXTT12=
EXTT13=
EXTT14=
PLAYORDER=
